<svg id="visual" viewBox="0 0 900 600" width="900" height="600" xmlns="http://www.w3.org/2000/svg" xmlns:xlink="http://www.w3.org/1999/xlink" version="1.1"><g stroke-width="1" stroke-linejoin="bevel"><path d="M444 297L450 354L509.3 296Z" fill="#ddc5a9" stroke="#ddc5a9"></path><path d="M450 354L514.3 360L509.3 296Z" fill="#efe2d0" stroke="#efe2d0"></path><path d="M509.3 296L452 237L444 297Z" fill="#efe2d0" stroke="#efe2d0"></path><path d="M575.6 298L508.3 235L509.3 296Z" fill="#f8f0e5" stroke="#f8f0e5"></path><path d="M509.3 296L508.3 235L452 237Z" fill="#f5ebde" stroke="#f5ebde"></path><path d="M380.7 235L384.7 296L444 297Z" fill="#f8f0e5" stroke="#f8f0e5"></path><path d="M444 297L386.7 359L450 354Z" fill="#f5ebde" stroke="#f5ebde"></path><path d="M384.7 296L386.7 359L444 297Z" fill="#f8f0e5" stroke="#f8f0e5"></path><path d="M450 354L510.3 420L514.3 360Z" fill="#ddc5a9" stroke="#ddc5a9"></path><path d="M514.3 360L575.6 298L509.3 296Z" fill="#ecddca" stroke="#ecddca"></path><path d="M447 424L510.3 420L450 354Z" fill="#dac0a3" stroke="#dac0a3"></path><path d="M514.3 360L582.6 362L575.6 298Z" fill="#e3ceb6" stroke="#e3ceb6"></path><path d="M386.7 359L447 424L450 354Z" fill="#ecddca" stroke="#ecddca"></path><path d="M576.6 425L582.6 362L514.3 360Z" fill="#e9d8c3" stroke="#e9d8c3"></path><path d="M383.7 177L380.7 235L452 237Z" fill="#ecddca" stroke="#ecddca"></path><path d="M452 237L380.7 235L444 297Z" fill="#e3ceb6" stroke="#e3ceb6"></path><path d="M320.4 365L384.7 419L386.7 359Z" fill="#e3ceb6" stroke="#e3ceb6"></path><path d="M325.4 299L386.7 359L384.7 296Z" fill="#f2e6d7" stroke="#f2e6d7"></path><path d="M386.7 359L384.7 419L447 424Z" fill="#ecddca" stroke="#ecddca"></path><path d="M636.9 245L582.6 238L575.6 298Z" fill="#e3ceb6" stroke="#e3ceb6"></path><path d="M575.6 298L582.6 238L508.3 235Z" fill="#dac0a3" stroke="#dac0a3"></path><path d="M572.6 474L576.6 425L510.3 420Z" fill="#e9d8c3" stroke="#e9d8c3"></path><path d="M510.3 420L576.6 425L514.3 360Z" fill="#dac0a3" stroke="#dac0a3"></path><path d="M572.6 185L513.3 182L508.3 235Z" fill="#e0cab0" stroke="#e0cab0"></path><path d="M508.3 235L513.3 182L452 237Z" fill="#dac0a3" stroke="#dac0a3"></path><path d="M513.3 182L451 174L452 237Z" fill="#f5ebde" stroke="#f5ebde"></path><path d="M380.7 235L325.4 299L384.7 296Z" fill="#f8f0e5" stroke="#f8f0e5"></path><path d="M384.7 419L445 478L447 424Z" fill="#e6d3bc" stroke="#e6d3bc"></path><path d="M447 424L513.3 481L510.3 420Z" fill="#f2e6d7" stroke="#f2e6d7"></path><path d="M325.4 299L320.4 365L386.7 359Z" fill="#f8f0e5" stroke="#f8f0e5"></path><path d="M384.7 419L382.7 482L445 478Z" fill="#ecddca" stroke="#ecddca"></path><path d="M445 478L513.3 481L447 424Z" fill="#e6d3bc" stroke="#e6d3bc"></path><path d="M636.9 423L638.9 361L582.6 362Z" fill="#e9d8c3" stroke="#e9d8c3"></path><path d="M582.6 362L643.9 301L575.6 298Z" fill="#e6d3bc" stroke="#e6d3bc"></path><path d="M638.9 177L572.6 185L582.6 238Z" fill="#ecddca" stroke="#ecddca"></path><path d="M582.6 238L572.6 185L508.3 235Z" fill="#ddc5a9" stroke="#ddc5a9"></path><path d="M514.3 124L455 122L451 174Z" fill="#f2e6d7" stroke="#f2e6d7"></path><path d="M638.9 361L643.9 301L582.6 362Z" fill="#f8f0e5" stroke="#f8f0e5"></path><path d="M451 174L383.7 177L452 237Z" fill="#ecddca" stroke="#ecddca"></path><path d="M380.7 235L316.4 244L325.4 299Z" fill="#e3ceb6" stroke="#e3ceb6"></path><path d="M643.9 301L636.9 245L575.6 298Z" fill="#f2e6d7" stroke="#f2e6d7"></path><path d="M326.4 182L316.4 244L380.7 235Z" fill="#f2e6d7" stroke="#f2e6d7"></path><path d="M325.4 299L260.1 364L320.4 365Z" fill="#e9d8c3" stroke="#e9d8c3"></path><path d="M513.3 481L572.6 474L510.3 420Z" fill="#f5ebde" stroke="#f5ebde"></path><path d="M576.6 425L636.9 423L582.6 362Z" fill="#ecddca" stroke="#ecddca"></path><path d="M260.1 364L321.4 422L320.4 365Z" fill="#efe2d0" stroke="#efe2d0"></path><path d="M320.4 365L321.4 422L384.7 419Z" fill="#f5ebde" stroke="#f5ebde"></path><path d="M323.4 479L382.7 482L384.7 419Z" fill="#ddc5a9" stroke="#ddc5a9"></path><path d="M449 543L519.3 537L513.3 481Z" fill="#ecddca" stroke="#ecddca"></path><path d="M572.6 474L636.9 423L576.6 425Z" fill="#f2e6d7" stroke="#f2e6d7"></path><path d="M638.9 361L703.1 357L643.9 301Z" fill="#ddc5a9" stroke="#ddc5a9"></path><path d="M514.3 124L451 174L513.3 182Z" fill="#ddc5a9" stroke="#ddc5a9"></path><path d="M451 174L386.7 124L383.7 177Z" fill="#f2e6d7" stroke="#f2e6d7"></path><path d="M574.6 124L513.3 182L572.6 185Z" fill="#f5ebde" stroke="#f5ebde"></path><path d="M574.6 124L514.3 124L513.3 182Z" fill="#e9d8c3" stroke="#e9d8c3"></path><path d="M383.7 177L326.4 182L380.7 235Z" fill="#f2e6d7" stroke="#f2e6d7"></path><path d="M322.4 122L326.4 182L383.7 177Z" fill="#e6d3bc" stroke="#e6d3bc"></path><path d="M701.1 235L638.9 177L636.9 245Z" fill="#f5ebde" stroke="#f5ebde"></path><path d="M636.9 245L638.9 177L582.6 238Z" fill="#efe2d0" stroke="#efe2d0"></path><path d="M455 122L386.7 124L451 174Z" fill="#f8f0e5" stroke="#f8f0e5"></path><path d="M449 543L513.3 481L445 478Z" fill="#e0cab0" stroke="#e0cab0"></path><path d="M513.3 481L519.3 537L572.6 474Z" fill="#f8f0e5" stroke="#f8f0e5"></path><path d="M572.6 474L645.9 482L636.9 423Z" fill="#f2e6d7" stroke="#f2e6d7"></path><path d="M321.4 422L323.4 479L384.7 419Z" fill="#e3ceb6" stroke="#e3ceb6"></path><path d="M385.7 537L449 543L445 478Z" fill="#f2e6d7" stroke="#f2e6d7"></path><path d="M252.1 299L325.4 299L316.4 244Z" fill="#e0cab0" stroke="#e0cab0"></path><path d="M252.1 299L260.1 364L325.4 299Z" fill="#f5ebde" stroke="#f5ebde"></path><path d="M321.4 422L253.1 478L323.4 479Z" fill="#e3ceb6" stroke="#e3ceb6"></path><path d="M638.9 177L574.6 124L572.6 185Z" fill="#e6d3bc" stroke="#e6d3bc"></path><path d="M514.3 124L508.3 61L455 122Z" fill="#e0cab0" stroke="#e0cab0"></path><path d="M385.7 537L445 478L382.7 482Z" fill="#f5ebde" stroke="#f5ebde"></path><path d="M253.1 240L252.1 299L316.4 244Z" fill="#efe2d0" stroke="#efe2d0"></path><path d="M708.1 419L703.1 357L638.9 361Z" fill="#e9d8c3" stroke="#e9d8c3"></path><path d="M643.9 301L705.1 299L636.9 245Z" fill="#ecddca" stroke="#ecddca"></path><path d="M703.1 357L705.1 299L643.9 301Z" fill="#e6d3bc" stroke="#e6d3bc"></path><path d="M580.6 536L645.9 482L572.6 474Z" fill="#f5ebde" stroke="#f5ebde"></path><path d="M636.9 423L708.1 419L638.9 361Z" fill="#f5ebde" stroke="#f5ebde"></path><path d="M321.4 541L385.7 537L382.7 482Z" fill="#f2e6d7" stroke="#f2e6d7"></path><path d="M519.3 537L580.6 536L572.6 474Z" fill="#dac0a3" stroke="#dac0a3"></path><path d="M581.6 600L580.6 536L519.3 537Z" fill="#e3ceb6" stroke="#e3ceb6"></path><path d="M326.4 182L253.1 240L316.4 244Z" fill="#e3ceb6" stroke="#e3ceb6"></path><path d="M252.1 174L253.1 240L326.4 182Z" fill="#f2e6d7" stroke="#f2e6d7"></path><path d="M705.1 299L701.1 235L636.9 245Z" fill="#e9d8c3" stroke="#e9d8c3"></path><path d="M260.1 364L254.1 422L321.4 422Z" fill="#ecddca" stroke="#ecddca"></path><path d="M323.4 479L321.4 541L382.7 482Z" fill="#f2e6d7" stroke="#f2e6d7"></path><path d="M192.9 417L254.1 422L260.1 364Z" fill="#e0cab0" stroke="#e0cab0"></path><path d="M645.9 482L708.1 419L636.9 423Z" fill="#ddc5a9" stroke="#ddc5a9"></path><path d="M703.1 357L773.4 299L705.1 299Z" fill="#e3ceb6" stroke="#e3ceb6"></path><path d="M320.4 64L322.4 122L386.7 124Z" fill="#ddc5a9" stroke="#ddc5a9"></path><path d="M386.7 124L322.4 122L383.7 177Z" fill="#efe2d0" stroke="#efe2d0"></path><path d="M706.1 181L646.9 123L638.9 177Z" fill="#f8f0e5" stroke="#f8f0e5"></path><path d="M638.9 177L646.9 123L574.6 124Z" fill="#ecddca" stroke="#ecddca"></path><path d="M574.6 124L508.3 61L514.3 124Z" fill="#ddc5a9" stroke="#ddc5a9"></path><path d="M577.6 56L508.3 61L574.6 124Z" fill="#ddc5a9" stroke="#ddc5a9"></path><path d="M455 122L389.7 61L386.7 124Z" fill="#e6d3bc" stroke="#e6d3bc"></path><path d="M508.3 61L444 56L455 122Z" fill="#ecddca" stroke="#ecddca"></path><path d="M262.1 542L321.4 541L323.4 479Z" fill="#f8f0e5" stroke="#f8f0e5"></path><path d="M385.7 537L444 600L449 543Z" fill="#e3ceb6" stroke="#e3ceb6"></path><path d="M772.4 235L706.1 181L701.1 235Z" fill="#f5ebde" stroke="#f5ebde"></path><path d="M701.1 235L706.1 181L638.9 177Z" fill="#efe2d0" stroke="#efe2d0"></path><path d="M772.4 235L701.1 235L705.1 299Z" fill="#e6d3bc" stroke="#e6d3bc"></path><path d="M322.4 122L252.1 174L326.4 182Z" fill="#dac0a3" stroke="#dac0a3"></path><path d="M186.9 294L195.9 355L252.1 299Z" fill="#e6d3bc" stroke="#e6d3bc"></path><path d="M188.9 477L253.1 478L254.1 422Z" fill="#e9d8c3" stroke="#e9d8c3"></path><path d="M254.1 422L253.1 478L321.4 422Z" fill="#f5ebde" stroke="#f5ebde"></path><path d="M580.6 536L645.9 538L645.9 482Z" fill="#e6d3bc" stroke="#e6d3bc"></path><path d="M645.9 482L710.1 481L708.1 419Z" fill="#e0cab0" stroke="#e0cab0"></path><path d="M581.6 600L645.9 538L580.6 536Z" fill="#e3ceb6" stroke="#e3ceb6"></path><path d="M444 56L389.7 61L455 122Z" fill="#f2e6d7" stroke="#f2e6d7"></path><path d="M322.4 122L251.1 114L252.1 174Z" fill="#ecddca" stroke="#ecddca"></path><path d="M383.7 600L444 600L385.7 537Z" fill="#dac0a3" stroke="#dac0a3"></path><path d="M449 543L510.3 600L519.3 537Z" fill="#e3ceb6" stroke="#e3ceb6"></path><path d="M444 600L510.3 600L449 543Z" fill="#e3ceb6" stroke="#e3ceb6"></path><path d="M710.1 536L710.1 481L645.9 482Z" fill="#e6d3bc" stroke="#e6d3bc"></path><path d="M773.4 363L773.4 299L703.1 357Z" fill="#e0cab0" stroke="#e0cab0"></path><path d="M186.9 294L252.1 299L194.9 241Z" fill="#ddc5a9" stroke="#ddc5a9"></path><path d="M252.1 299L195.9 355L260.1 364Z" fill="#e0cab0" stroke="#e0cab0"></path><path d="M646.9 123L577.6 56L574.6 124Z" fill="#f2e6d7" stroke="#f2e6d7"></path><path d="M508.3 61L453 0L444 56Z" fill="#f5ebde" stroke="#f5ebde"></path><path d="M194.9 241L252.1 299L253.1 240Z" fill="#f2e6d7" stroke="#f2e6d7"></path><path d="M321.4 541L383.7 600L385.7 537Z" fill="#efe2d0" stroke="#efe2d0"></path><path d="M321.4 600L383.7 600L321.4 541Z" fill="#f8f0e5" stroke="#f8f0e5"></path><path d="M196.9 177L194.9 241L253.1 240Z" fill="#efe2d0" stroke="#efe2d0"></path><path d="M510.3 600L581.6 600L519.3 537Z" fill="#ddc5a9" stroke="#ddc5a9"></path><path d="M645.9 538L710.1 536L645.9 482Z" fill="#ddc5a9" stroke="#ddc5a9"></path><path d="M773.4 363L703.1 357L708.1 419Z" fill="#e6d3bc" stroke="#e6d3bc"></path><path d="M774.4 424L773.4 363L708.1 419Z" fill="#ddc5a9" stroke="#ddc5a9"></path><path d="M127.6 363L192.9 417L195.9 355Z" fill="#ecddca" stroke="#ecddca"></path><path d="M195.9 355L192.9 417L260.1 364Z" fill="#dac0a3" stroke="#dac0a3"></path><path d="M380.7 0L320.4 64L389.7 61Z" fill="#efe2d0" stroke="#efe2d0"></path><path d="M389.7 61L320.4 64L386.7 124Z" fill="#f5ebde" stroke="#f5ebde"></path><path d="M252.1 174L196.9 177L253.1 240Z" fill="#f2e6d7" stroke="#f2e6d7"></path><path d="M195.9 542L262.1 542L253.1 478Z" fill="#f2e6d7" stroke="#f2e6d7"></path><path d="M253.1 478L262.1 542L323.4 479Z" fill="#e3ceb6" stroke="#e3ceb6"></path><path d="M320.4 64L251.1 114L322.4 122Z" fill="#f8f0e5" stroke="#f8f0e5"></path><path d="M773.4 299L772.4 235L705.1 299Z" fill="#e0cab0" stroke="#e0cab0"></path><path d="M706.1 181L711.1 122L646.9 123Z" fill="#e6d3bc" stroke="#e6d3bc"></path><path d="M646.9 123L645.9 58L577.6 56Z" fill="#ddc5a9" stroke="#ddc5a9"></path><path d="M774.4 179L711.1 122L706.1 181Z" fill="#f2e6d7" stroke="#f2e6d7"></path><path d="M704.1 65L645.9 58L646.9 123Z" fill="#dac0a3" stroke="#dac0a3"></path><path d="M771.4 474L708.1 419L710.1 481Z" fill="#ddc5a9" stroke="#ddc5a9"></path><path d="M771.4 474L774.4 424L708.1 419Z" fill="#ecddca" stroke="#ecddca"></path><path d="M835.7 360L832.7 295L773.4 299Z" fill="#e9d8c3" stroke="#e9d8c3"></path><path d="M195.9 115L196.9 177L252.1 174Z" fill="#f5ebde" stroke="#f5ebde"></path><path d="M128.6 235L126.6 303L186.9 294Z" fill="#ecddca" stroke="#ecddca"></path><path d="M706.1 600L710.1 536L645.9 538Z" fill="#dac0a3" stroke="#dac0a3"></path><path d="M262.1 542L321.4 600L321.4 541Z" fill="#ecddca" stroke="#ecddca"></path><path d="M509.3 0L508.3 61L577.6 56Z" fill="#efe2d0" stroke="#efe2d0"></path><path d="M509.3 0L453 0L508.3 61Z" fill="#dac0a3" stroke="#dac0a3"></path><path d="M444 56L380.7 0L389.7 61Z" fill="#ecddca" stroke="#ecddca"></path><path d="M575.6 0L509.3 0L577.6 56Z" fill="#ddc5a9" stroke="#ddc5a9"></path><path d="M581.6 600L646.9 600L645.9 538Z" fill="#e9d8c3" stroke="#e9d8c3"></path><path d="M192.9 417L188.9 477L254.1 422Z" fill="#e3ceb6" stroke="#e3ceb6"></path><path d="M262.1 542L260.1 600L321.4 600Z" fill="#f8f0e5" stroke="#f8f0e5"></path><path d="M122.6 424L188.9 477L192.9 417Z" fill="#dac0a3" stroke="#dac0a3"></path><path d="M772.4 235L774.4 179L706.1 181Z" fill="#ecddca" stroke="#ecddca"></path><path d="M711.1 122L704.1 65L646.9 123Z" fill="#e0cab0" stroke="#e0cab0"></path><path d="M840.7 234L774.4 179L772.4 235Z" fill="#e0cab0" stroke="#e0cab0"></path><path d="M832.7 295L772.4 235L773.4 299Z" fill="#f2e6d7" stroke="#f2e6d7"></path><path d="M771.4 538L771.4 474L710.1 481Z" fill="#f2e6d7" stroke="#f2e6d7"></path><path d="M453 0L380.7 0L444 56Z" fill="#e9d8c3" stroke="#e9d8c3"></path><path d="M320.4 64L261.1 54L251.1 114Z" fill="#ecddca" stroke="#ecddca"></path><path d="M646.9 0L575.6 0L577.6 56Z" fill="#f8f0e5" stroke="#f8f0e5"></path><path d="M765.4 118L704.1 65L711.1 122Z" fill="#e0cab0" stroke="#e0cab0"></path><path d="M645.9 58L646.9 0L577.6 56Z" fill="#e6d3bc" stroke="#e6d3bc"></path><path d="M323.4 0L261.1 54L320.4 64Z" fill="#e0cab0" stroke="#e0cab0"></path><path d="M251.1 114L195.9 115L252.1 174Z" fill="#e9d8c3" stroke="#e9d8c3"></path><path d="M195.9 59L195.9 115L251.1 114Z" fill="#efe2d0" stroke="#efe2d0"></path><path d="M128.6 235L186.9 294L194.9 241Z" fill="#efe2d0" stroke="#efe2d0"></path><path d="M128.6 235L194.9 241L196.9 177Z" fill="#e9d8c3" stroke="#e9d8c3"></path><path d="M186.9 294L126.6 303L195.9 355Z" fill="#e3ceb6" stroke="#e3ceb6"></path><path d="M126.6 303L127.6 363L195.9 355Z" fill="#e3ceb6" stroke="#e3ceb6"></path><path d="M195.9 542L260.1 600L262.1 542Z" fill="#f8f0e5" stroke="#f8f0e5"></path><path d="M774.4 179L765.4 118L711.1 122Z" fill="#dac0a3" stroke="#dac0a3"></path><path d="M835.7 360L773.4 363L835.7 425Z" fill="#e9d8c3" stroke="#e9d8c3"></path><path d="M835.7 360L773.4 299L773.4 363Z" fill="#f5ebde" stroke="#f5ebde"></path><path d="M774.4 179L836.7 125L765.4 118Z" fill="#e9d8c3" stroke="#e9d8c3"></path><path d="M133.6 542L195.9 542L188.9 477Z" fill="#e6d3bc" stroke="#e6d3bc"></path><path d="M188.9 477L195.9 542L253.1 478Z" fill="#efe2d0" stroke="#efe2d0"></path><path d="M380.7 0L323.4 0L320.4 64Z" fill="#f2e6d7" stroke="#f2e6d7"></path><path d="M124.6 176L128.6 235L196.9 177Z" fill="#efe2d0" stroke="#efe2d0"></path><path d="M646.9 600L706.1 600L645.9 538Z" fill="#e0cab0" stroke="#e0cab0"></path><path d="M710.1 536L771.4 538L710.1 481Z" fill="#f2e6d7" stroke="#f2e6d7"></path><path d="M835.7 425L773.4 363L774.4 424Z" fill="#f8f0e5" stroke="#f8f0e5"></path><path d="M835.7 425L774.4 424L832.7 479Z" fill="#ddc5a9" stroke="#ddc5a9"></path><path d="M705.1 0L645.9 58L704.1 65Z" fill="#ddc5a9" stroke="#ddc5a9"></path><path d="M705.1 0L646.9 0L645.9 58Z" fill="#f5ebde" stroke="#f5ebde"></path><path d="M706.1 600L771.4 538L710.1 536Z" fill="#e9d8c3" stroke="#e9d8c3"></path><path d="M64.3 416L122.6 424L127.6 363Z" fill="#e9d8c3" stroke="#e9d8c3"></path><path d="M127.6 363L122.6 424L192.9 417Z" fill="#efe2d0" stroke="#efe2d0"></path><path d="M68.3 354L127.6 363L126.6 303Z" fill="#f2e6d7" stroke="#f2e6d7"></path><path d="M832.7 479L774.4 424L771.4 474Z" fill="#ecddca" stroke="#ecddca"></path><path d="M832.7 295L840.7 234L772.4 235Z" fill="#ddc5a9" stroke="#ddc5a9"></path><path d="M900 300L840.7 234L832.7 295Z" fill="#dac0a3" stroke="#dac0a3"></path><path d="M900 300L832.7 295L835.7 360Z" fill="#e3ceb6" stroke="#e3ceb6"></path><path d="M131.6 120L124.6 176L196.9 177Z" fill="#dac0a3" stroke="#dac0a3"></path><path d="M60.3 298L68.3 354L126.6 303Z" fill="#f5ebde" stroke="#f5ebde"></path><path d="M131.6 120L196.9 177L195.9 115Z" fill="#e9d8c3" stroke="#e9d8c3"></path><path d="M122.6 424L129.6 481L188.9 477Z" fill="#ecddca" stroke="#ecddca"></path><path d="M259.1 0L195.9 59L261.1 54Z" fill="#f8f0e5" stroke="#f8f0e5"></path><path d="M261.1 54L195.9 59L251.1 114Z" fill="#e6d3bc" stroke="#e6d3bc"></path><path d="M771.4 538L832.7 479L771.4 474Z" fill="#f8f0e5" stroke="#f8f0e5"></path><path d="M323.4 0L259.1 0L261.1 54Z" fill="#e0cab0" stroke="#e0cab0"></path><path d="M840.7 234L838.7 176L774.4 179Z" fill="#efe2d0" stroke="#efe2d0"></path><path d="M776.4 55L705.1 0L704.1 65Z" fill="#dac0a3" stroke="#dac0a3"></path><path d="M776.4 55L704.1 65L765.4 118Z" fill="#e3ceb6" stroke="#e3ceb6"></path><path d="M195.9 59L131.6 120L195.9 115Z" fill="#f5ebde" stroke="#f5ebde"></path><path d="M133.6 542L187.9 600L195.9 542Z" fill="#ecddca" stroke="#ecddca"></path><path d="M195.9 542L187.9 600L260.1 600Z" fill="#ddc5a9" stroke="#ddc5a9"></path><path d="M836.7 125L776.4 55L765.4 118Z" fill="#f2e6d7" stroke="#f2e6d7"></path><path d="M706.1 600L774.4 600L771.4 538Z" fill="#ecddca" stroke="#ecddca"></path><path d="M771.4 538L833.7 541L832.7 479Z" fill="#f2e6d7" stroke="#f2e6d7"></path><path d="M69.3 540L133.6 542L129.6 481Z" fill="#e6d3bc" stroke="#e6d3bc"></path><path d="M129.6 481L133.6 542L188.9 477Z" fill="#e6d3bc" stroke="#e6d3bc"></path><path d="M60.3 298L126.6 303L63.3 243Z" fill="#ddc5a9" stroke="#ddc5a9"></path><path d="M122.6 424L66.3 476L129.6 481Z" fill="#e3ceb6" stroke="#e3ceb6"></path><path d="M126.6 303L128.6 235L63.3 243Z" fill="#e0cab0" stroke="#e0cab0"></path><path d="M838.7 176L836.7 125L774.4 179Z" fill="#e0cab0" stroke="#e0cab0"></path><path d="M63.3 243L128.6 235L67.3 179Z" fill="#e6d3bc" stroke="#e6d3bc"></path><path d="M774.4 600L833.7 541L771.4 538Z" fill="#e0cab0" stroke="#e0cab0"></path><path d="M900 355L835.7 360L900 414Z" fill="#e9d8c3" stroke="#e9d8c3"></path><path d="M900 355L900 300L835.7 360Z" fill="#e3ceb6" stroke="#e3ceb6"></path><path d="M67.3 179L128.6 235L124.6 176Z" fill="#f5ebde" stroke="#f5ebde"></path><path d="M0 359L64.3 416L68.3 354Z" fill="#f2e6d7" stroke="#f2e6d7"></path><path d="M68.3 354L64.3 416L127.6 363Z" fill="#e9d8c3" stroke="#e9d8c3"></path><path d="M835.7 360L835.7 425L900 414Z" fill="#ecddca" stroke="#ecddca"></path><path d="M840.7 234L900 174L838.7 176Z" fill="#e6d3bc" stroke="#e6d3bc"></path><path d="M838.7 176L900 174L836.7 125Z" fill="#dac0a3" stroke="#dac0a3"></path><path d="M900 414L835.7 425L900 484Z" fill="#e6d3bc" stroke="#e6d3bc"></path><path d="M900 300L900 236L840.7 234Z" fill="#ddc5a9" stroke="#ddc5a9"></path><path d="M900 484L835.7 425L832.7 479Z" fill="#f2e6d7" stroke="#f2e6d7"></path><path d="M195.9 59L126.6 57L131.6 120Z" fill="#f2e6d7" stroke="#f2e6d7"></path><path d="M69.3 125L67.3 179L124.6 176Z" fill="#e3ceb6" stroke="#e3ceb6"></path><path d="M259.1 0L187.9 0L195.9 59Z" fill="#ecddca" stroke="#ecddca"></path><path d="M69.3 125L124.6 176L131.6 120Z" fill="#f8f0e5" stroke="#f8f0e5"></path><path d="M834.7 0L769.4 0L776.4 55Z" fill="#e9d8c3" stroke="#e9d8c3"></path><path d="M776.4 55L769.4 0L705.1 0Z" fill="#ddc5a9" stroke="#ddc5a9"></path><path d="M840.7 63L776.4 55L836.7 125Z" fill="#f8f0e5" stroke="#f8f0e5"></path><path d="M0 420L66.3 476L64.3 416Z" fill="#e3ceb6" stroke="#e3ceb6"></path><path d="M64.3 416L66.3 476L122.6 424Z" fill="#f8f0e5" stroke="#f8f0e5"></path><path d="M133.6 542L125.6 600L187.9 600Z" fill="#ddc5a9" stroke="#ddc5a9"></path><path d="M187.9 0L126.6 57L195.9 59Z" fill="#e9d8c3" stroke="#e9d8c3"></path><path d="M900 122L840.7 63L836.7 125Z" fill="#efe2d0" stroke="#efe2d0"></path><path d="M69.3 540L125.6 600L133.6 542Z" fill="#f5ebde" stroke="#f5ebde"></path><path d="M900 236L900 174L840.7 234Z" fill="#ecddca" stroke="#ecddca"></path><path d="M900 541L900 484L833.7 541Z" fill="#efe2d0" stroke="#efe2d0"></path><path d="M833.7 541L900 484L832.7 479Z" fill="#f5ebde" stroke="#f5ebde"></path><path d="M126.6 57L69.3 125L131.6 120Z" fill="#ddc5a9" stroke="#ddc5a9"></path><path d="M0 237L0 299L63.3 243Z" fill="#efe2d0" stroke="#efe2d0"></path><path d="M63.3 243L0 299L60.3 298Z" fill="#e9d8c3" stroke="#e9d8c3"></path><path d="M774.4 600L835.7 600L833.7 541Z" fill="#e3ceb6" stroke="#e3ceb6"></path><path d="M66.3 476L69.3 540L129.6 481Z" fill="#ddc5a9" stroke="#ddc5a9"></path><path d="M900 174L900 122L836.7 125Z" fill="#e9d8c3" stroke="#e9d8c3"></path><path d="M835.7 600L900 541L833.7 541Z" fill="#efe2d0" stroke="#efe2d0"></path><path d="M187.9 0L126.6 0L126.6 57Z" fill="#f8f0e5" stroke="#f8f0e5"></path><path d="M126.6 57L64.3 57L69.3 125Z" fill="#ddc5a9" stroke="#ddc5a9"></path><path d="M0 237L63.3 243L0 184Z" fill="#e0cab0" stroke="#e0cab0"></path><path d="M60.3 298L0 359L68.3 354Z" fill="#f8f0e5" stroke="#f8f0e5"></path><path d="M66.3 476L0 537L69.3 540Z" fill="#e0cab0" stroke="#e0cab0"></path><path d="M0 299L0 359L60.3 298Z" fill="#f5ebde" stroke="#f5ebde"></path><path d="M840.7 63L834.7 0L776.4 55Z" fill="#f5ebde" stroke="#f5ebde"></path><path d="M900 55L834.7 0L840.7 63Z" fill="#ecddca" stroke="#ecddca"></path><path d="M0 184L63.3 243L67.3 179Z" fill="#f8f0e5" stroke="#f8f0e5"></path><path d="M0 184L67.3 179L0 118Z" fill="#e0cab0" stroke="#e0cab0"></path><path d="M0 359L0 420L64.3 416Z" fill="#e9d8c3" stroke="#e9d8c3"></path><path d="M126.6 0L64.3 57L126.6 57Z" fill="#ecddca" stroke="#ecddca"></path><path d="M0 537L66.3 600L69.3 540Z" fill="#f8f0e5" stroke="#f8f0e5"></path><path d="M69.3 540L66.3 600L125.6 600Z" fill="#f8f0e5" stroke="#f8f0e5"></path><path d="M0 118L67.3 179L69.3 125Z" fill="#e9d8c3" stroke="#e9d8c3"></path><path d="M900 122L900 55L840.7 63Z" fill="#dac0a3" stroke="#dac0a3"></path><path d="M0 420L0 478L66.3 476Z" fill="#e9d8c3" stroke="#e9d8c3"></path><path d="M835.7 600L900 600L900 541Z" fill="#ddc5a9" stroke="#ddc5a9"></path><path d="M64.3 57L0 118L69.3 125Z" fill="#ddc5a9" stroke="#ddc5a9"></path><path d="M0 478L0 537L66.3 476Z" fill="#f2e6d7" stroke="#f2e6d7"></path><path d="M126.6 0L63.3 0L64.3 57Z" fill="#e3ceb6" stroke="#e3ceb6"></path><path d="M64.3 57L0 56L0 118Z" fill="#f8f0e5" stroke="#f8f0e5"></path><path d="M900 55L900 0L834.7 0Z" fill="#ddc5a9" stroke="#ddc5a9"></path><path d="M63.3 0L0 56L64.3 57Z" fill="#e6d3bc" stroke="#e6d3bc"></path><path d="M0 537L0 600L66.3 600Z" fill="#f5ebde" stroke="#f5ebde"></path><path d="M63.3 0L0 0L0 56Z" fill="#ddc5a9" stroke="#ddc5a9"></path></g></svg>